<?xml version="1.0" encoding="utf-8"?>
<!-- Generator: Adobe Illustrator 25.0.1, SVG Export Plug-In . SVG Version: 6.00 Build 0)  -->
<svg version="1.1" id="Capa_1" xmlns="http://www.w3.org/2000/svg" xmlns:xlink="http://www.w3.org/1999/xlink" x="0px" y="0px"
	 viewBox="0 0 512 512" style="enable-background:new 0 0 512 512;" xml:space="preserve">
<style type="text/css">
	.st0{fill:#FFFFFF;}
</style>
<g id="dhtH6i.tif">
	<g>
		<path class="st0" d="M147.6,354.8c7.3-26.5,14.6-53,21.9-79.5c1.4-5,2.8-6.1,8-6.1c68.4,0,136.9,0,205.3,0c6.6,0,8.7,2.8,7.1,9.3
			c-3,11.5-6,23.1-9,34.6c-1.1,4.1-4.2,6-7.6,4.9c-3.2-1-4.7-4.1-3.8-8c0.2-0.8,0.4-1.6,0.7-2.5c2.1-7.8,4-15.5,6.2-23.3
			c0.7-2.5,0.6-3.5-2.6-3.5c-63.6,0.1-127.2,0.1-190.7,0c-2.4,0-3.3,0.8-3.9,3.1c-9,33-18,65.9-27.2,98.9c-0.8,2.9-0.3,3.4,2.6,3.4
			c61.7-0.1,123.5-0.1,185.2-0.1c6.8,0,10.2-2.7,12-9.4c2.7-10,5.3-20,7.9-30c0.3-1.1,0.5-2.2,0.9-3.1c1.2-2.7,4.3-4.3,6.9-3.3
			c2.9,1.1,4.9,3.3,4.1,6.5c-3.2,12.5-6,25.1-10.2,37.3c-3,9-10.6,13.7-20.2,13.7c-65.6,0.1-131.3,0.1-196.9,0.1
			c-4.7,0-6.6-1.9-6.9-6.5c-2.5-37.9-4.9-75.8-7.4-113.7c-1.3-19.9-2.7-39.8-4.1-59.8c-0.7-10.2,3-16.3,11.1-18.3
			c1.5-0.4,3.1-0.5,4.7-0.5c13.8,0,27.5,0.1,41.3,0c7.1-0.1,12.7,2.7,17,8.4c3.1,4.1,6.4,8,9.4,12.1c1.6,2.2,3.3,3,6,3
			c41.2-0.1,82.3-0.1,123.5-0.1c1,0,2,0,2.9,0c3.7,0.2,6,2.3,6,5.9c0.1,7.7,0.1,15.3,0,23c0,3.7-2.6,6.1-5.9,6.1
			c-3.3-0.1-5.7-2.5-5.7-6.3c-0.1-4.5-0.2-9,0-13.5c0.1-2.8-0.7-3.7-3.6-3.7c-12.4,0.2-24.8,0.1-37.3,0.1c-28.1,0-56.3,0-84.4,0.1
			c-3.5,0-6-1.1-8.1-3.9c-4-5.4-8.3-10.5-12.3-15.9c-1.9-2.5-4.3-3.7-7.5-3.7c-13.6,0.1-27.3,0-40.9,0c-4.2,0-5,0.8-4.7,5
			c1.8,27.7,3.7,55.4,5.5,83.1c1.1,16.6,2.1,33.3,3.2,49.9c0.1,2,0.4,4.1,0.5,6.1C147.2,354.8,147.4,354.8,147.6,354.8z"/>
		<path class="st0" d="M269.2,193.9c7-3.5,13.4-6.6,19.7-9.9c3-1.6,5.7-1.7,9-0.8c22.2,6.6,44,5.6,65-4.8
			c6.7-3.3,12.6-7.9,16.6-14.4c5.1-8.2,4.9-16.4-0.4-24.4c-5.8-8.7-14.4-13.6-23.9-17.3c-4.3-1.7-8.8-2.8-13.3-3.7
			c-4-0.9-6-3.6-5.4-6.9c0.6-3.5,3.8-5.3,7.8-4.5c12.7,2.5,24.6,7,34.7,15.3c9.1,7.4,15.4,16.6,15.7,28.9
			c0.3,12.6-5.8,22.2-15.1,29.9c-12.3,10.2-26.8,15-42.4,17c-13.8,1.8-27.5,0.6-40.8-3.2c-1.7-0.5-3-0.1-4.5,0.6
			c-9.1,4.6-18.3,9.1-27.4,13.8c-2.7,1.4-5.2,2.1-7.8,0c-2.6-2.1-2.3-4.8-1.6-7.7c2.2-8.4,4.1-16.8,6.3-25.1
			c0.5-1.9,0.3-3.4-0.8-5.1c-9.4-14.6-7.9-30.7,4-43.6c10.4-11.3,23.8-16.9,38.5-20.2c1.4-0.3,2.9-0.6,4.3-0.8
			c3.7-0.3,6.5,1.7,6.9,4.9c0.4,3-1.7,5.9-5.1,6.6c-4.3,0.8-8.6,1.7-12.7,3.2c-8.7,3-16.8,7.2-23.1,14.1c-9.2,10-9.6,21.4-1,31.9
			c1.8,2.2,2.3,4.4,1.6,7.1C272.4,180.9,270.9,187.1,269.2,193.9z"/>
		<path class="st0" d="M339.3,142.5c0.1,4-2.1,5.8-4.1,7.5c-1.9,1.7-2.1,2.9,0,4.6c1.1,0.9,2.2,2,3,3.2c1.7,2.5,1.6,5.1-0.5,7.3
			c-2.2,2.3-4.9,2.5-7.6,0.7c-2-1.3-3.3-4.7-5.4-4.4c-2,0.2-3.5,3.1-5.5,4.5c-2.5,1.8-5.1,1.5-7.3-0.6c-2.3-2.3-2.4-4.9-0.6-7.6
			c1.3-2,4.6-3.2,4.4-5.4c-0.2-1.8-3-3.3-4.3-5.1c-1.9-2.6-1.8-5.3,0.5-7.6c2.3-2.3,4.9-2.3,7.6-0.5c2,1.3,3.1,4.7,5.4,4.4
			c1.9-0.3,3.3-3,5.1-4.4c1.9-1.5,4-1.6,6.2-0.5C338.2,139.4,339.2,141.2,339.3,142.5z"/>
		<path class="st0" d="M271.8,346.3c6.4,0.3,11.4,2.2,15.6,6.1c2.7,2.6,3,5.9,0.8,8.4c-2.2,2.5-5.4,2.7-8.4,0.4
			c-5.7-4.3-9.5-4.3-15.4,0.1c-3,2.2-6.3,2-8.4-0.6c-2.1-2.6-1.8-5.8,1-8.4C261.3,348.2,266.6,346.4,271.8,346.3z"/>
		<path class="st0" d="M231.2,327.7c-2.1,0-4.1,0.1-6.2,0c-3.2-0.2-5.5-2.6-5.5-5.7c-0.1-3.2,2.3-5.8,5.6-5.9c4-0.2,8-0.2,12,0
			c3.4,0.1,5.7,2.7,5.7,5.8c0,3.2-2.4,5.6-5.8,5.8C235.1,327.8,233.2,327.7,231.2,327.7C231.2,327.7,231.2,327.7,231.2,327.7z"/>
		<path class="st0" d="M312.7,327.7c-1.8,0-3.6,0.1-5.5,0c-3.4-0.2-5.8-2.6-5.9-5.7c-0.1-3.2,2.3-5.8,5.7-5.9c4-0.2,8-0.2,12,0
			c3.4,0.1,5.7,2.7,5.7,5.9c0,3.2-2.4,5.5-5.8,5.7C316.8,327.8,314.7,327.7,312.7,327.7z"/>
	</g>
</g>
</svg>
